<svg xmlns="http://www.w3.org/2000/svg" xmlns:xlink="http://www.w3.org/1999/xlink" width="720" zoomAndPan="magnify" viewBox="0 0 540 540.000001" height="720" preserveAspectRatio="xMidYMid meet" version="1.0"><defs><g/></defs><g fill="#000000" fill-opacity="1"><g transform="translate(7.106089, 320.346772)"><g><path d="M 108.59375 -82.921875 C 117.457031 -73.191406 121.890625 -61.304688 121.890625 -47.265625 C 121.890625 -33.234375 117.457031 -21.382812 108.59375 -11.71875 C 99.726562 -2.0625 88.460938 2.765625 74.796875 2.765625 C 62.234375 2.765625 51.890625 -1.726562 43.765625 -10.71875 L 43.40625 -10.71875 L 43.40625 0 L 11.078125 0 L 11.078125 -158.828125 L 43.765625 -158.828125 L 43.765625 -85.6875 C 51.890625 -93.570312 62.234375 -97.515625 74.796875 -97.515625 C 88.460938 -97.515625 99.726562 -92.648438 108.59375 -82.921875 Z M 81.078125 -31.296875 C 85.140625 -35.421875 87.171875 -40.742188 87.171875 -47.265625 C 87.171875 -53.796875 85.046875 -59.15625 80.796875 -63.34375 C 76.546875 -67.53125 71.285156 -69.625 65.015625 -69.625 C 58.859375 -69.625 53.65625 -67.53125 49.40625 -63.34375 C 45.15625 -59.15625 43.03125 -53.800781 43.03125 -47.28125 C 43.03125 -40.875 45.09375 -35.578125 49.21875 -31.390625 C 53.34375 -27.210938 58.609375 -25.125 65.015625 -25.125 C 71.660156 -25.125 77.015625 -27.179688 81.078125 -31.296875 Z M 81.078125 -31.296875 "/></g></g></g><g fill="#000000" fill-opacity="1"><g transform="translate(115.882364, 320.346772)"><g><path d="M 17.546875 -11.71875 C 8.679688 -21.382812 4.25 -33.234375 4.25 -47.265625 C 4.25 -61.304688 8.679688 -73.191406 17.546875 -82.921875 C 26.410156 -92.648438 37.675781 -97.515625 51.34375 -97.515625 C 63.90625 -97.515625 74.25 -93.570312 82.375 -85.6875 L 82.375 -94.75 L 115.0625 -94.75 L 115.0625 0 L 82.734375 0 L 82.734375 -10.71875 L 82.375 -10.71875 C 74.25 -1.726562 63.90625 2.765625 51.34375 2.765625 C 37.675781 2.765625 26.410156 -2.0625 17.546875 -11.71875 Z M 45.34375 -63.34375 C 41.09375 -59.15625 38.96875 -53.796875 38.96875 -47.265625 C 38.96875 -40.742188 41 -35.421875 45.0625 -31.296875 C 49.125 -27.179688 54.476562 -25.125 61.125 -25.125 C 67.53125 -25.125 72.796875 -27.210938 76.921875 -31.390625 C 81.046875 -35.578125 83.109375 -40.875 83.109375 -47.28125 C 83.109375 -53.800781 80.984375 -59.15625 76.734375 -63.34375 C 72.484375 -67.53125 67.28125 -69.625 61.125 -69.625 C 54.851562 -69.625 49.59375 -67.53125 45.34375 -63.34375 Z M 45.34375 -63.34375 "/></g></g></g><g fill="#000000" fill-opacity="1"><g transform="translate(224.658639, 320.346772)"><g><path d="M 119.3125 -94.75 L 74.25 -49.5 L 123.734375 0 L 81.625 0 L 43.765625 -37.859375 L 43.765625 0 L 11.078125 0 L 11.078125 -158.828125 L 43.765625 -158.828125 L 43.765625 -61.6875 L 76.828125 -94.75 Z M 119.3125 -94.75 "/></g></g></g><g fill="#000000" fill-opacity="1"><g transform="translate(326.601768, 320.346772)"><g><path d="M 17.546875 -11.71875 C 8.679688 -21.382812 4.25 -33.234375 4.25 -47.265625 C 4.25 -61.304688 8.679688 -73.191406 17.546875 -82.921875 C 26.410156 -92.648438 37.675781 -97.515625 51.34375 -97.515625 C 63.90625 -97.515625 74.25 -93.570312 82.375 -85.6875 L 82.375 -94.75 L 115.0625 -94.75 L 115.0625 0 L 82.734375 0 L 82.734375 -10.71875 L 82.375 -10.71875 C 74.25 -1.726562 63.90625 2.765625 51.34375 2.765625 C 37.675781 2.765625 26.410156 -2.0625 17.546875 -11.71875 Z M 45.34375 -63.34375 C 41.09375 -59.15625 38.96875 -53.796875 38.96875 -47.265625 C 38.96875 -40.742188 41 -35.421875 45.0625 -31.296875 C 49.125 -27.179688 54.476562 -25.125 61.125 -25.125 C 67.53125 -25.125 72.796875 -27.210938 76.921875 -31.390625 C 81.046875 -35.578125 83.109375 -40.875 83.109375 -47.28125 C 83.109375 -53.800781 80.984375 -59.15625 76.734375 -63.34375 C 72.484375 -67.53125 67.28125 -69.625 61.125 -69.625 C 54.851562 -69.625 49.59375 -67.53125 45.34375 -63.34375 Z M 45.34375 -63.34375 "/></g></g></g><g fill="#000000" fill-opacity="1"><g transform="translate(435.378043, 320.346772)"><g/></g></g><g fill="#000000" fill-opacity="1"><g transform="translate(468.435638, 320.346772)"><g><path d="M 32.140625 -39.515625 C 38.046875 -39.515625 43.0625 -37.453125 47.1875 -33.328125 C 51.3125 -29.210938 53.375 -24.195312 53.375 -18.28125 C 53.375 -12.5 51.3125 -7.546875 47.1875 -3.421875 C 43.0625 0.703125 38.046875 2.765625 32.140625 2.765625 C 26.347656 2.765625 21.390625 0.703125 17.265625 -3.421875 C 13.140625 -7.546875 11.078125 -12.5 11.078125 -18.28125 C 11.078125 -24.195312 13.140625 -29.210938 17.265625 -33.328125 C 21.390625 -37.453125 26.347656 -39.515625 32.140625 -39.515625 Z M 32.140625 -39.515625 "/></g></g></g><g fill="#000000" fill-opacity="1"><g transform="translate(17.243117, 347.164914)"><g><path d="M 13.53125 -14.109375 C 13.90625 -14.109375 14.207031 -13.988281 14.4375 -13.75 C 14.675781 -13.507812 14.796875 -13.195312 14.796875 -12.8125 L 14.796875 -1.109375 C 14.796875 0.316406 14.488281 1.515625 13.875 2.484375 C 13.269531 3.453125 12.441406 4.164062 11.390625 4.625 C 10.347656 5.082031 9.171875 5.3125 7.859375 5.3125 C 7.148438 5.3125 6.320312 5.1875 5.375 4.9375 C 4.425781 4.695312 3.820312 4.441406 3.5625 4.171875 C 3.007812 3.890625 2.734375 3.535156 2.734375 3.109375 C 2.734375 3.003906 2.769531 2.863281 2.84375 2.6875 C 3.039062 2.238281 3.367188 2.015625 3.828125 2.015625 C 4.054688 2.015625 4.304688 2.066406 4.578125 2.171875 C 5.992188 2.722656 7.097656 3 7.890625 3 C 9.304688 3 10.390625 2.65625 11.140625 1.96875 C 11.898438 1.289062 12.28125 0.359375 12.28125 -0.828125 L 12.28125 -2.265625 C 11.90625 -1.566406 11.28125 -0.96875 10.40625 -0.46875 C 9.53125 0.0195312 8.601562 0.265625 7.625 0.265625 C 6.40625 0.265625 5.289062 -0.0390625 4.28125 -0.65625 C 3.269531 -1.28125 2.472656 -2.144531 1.890625 -3.25 C 1.316406 -4.363281 1.03125 -5.609375 1.03125 -6.984375 C 1.03125 -8.367188 1.316406 -9.613281 1.890625 -10.71875 C 2.472656 -11.832031 3.265625 -12.695312 4.265625 -13.3125 C 5.265625 -13.9375 6.367188 -14.25 7.578125 -14.25 C 8.546875 -14.25 9.453125 -14.023438 10.296875 -13.578125 C 11.140625 -13.140625 11.800781 -12.597656 12.28125 -11.953125 L 12.28125 -12.8125 C 12.28125 -13.1875 12.394531 -13.492188 12.625 -13.734375 C 12.851562 -13.984375 13.15625 -14.109375 13.53125 -14.109375 Z M 7.921875 -2.078125 C 8.785156 -2.078125 9.554688 -2.285156 10.234375 -2.703125 C 10.910156 -3.117188 11.4375 -3.703125 11.8125 -4.453125 C 12.195312 -5.203125 12.390625 -6.046875 12.390625 -6.984375 C 12.390625 -7.929688 12.195312 -8.773438 11.8125 -9.515625 C 11.4375 -10.253906 10.910156 -10.835938 10.234375 -11.265625 C 9.554688 -11.691406 8.785156 -11.90625 7.921875 -11.90625 C 7.066406 -11.90625 6.300781 -11.691406 5.625 -11.265625 C 4.957031 -10.835938 4.429688 -10.25 4.046875 -9.5 C 3.671875 -8.75 3.484375 -7.910156 3.484375 -6.984375 C 3.484375 -6.066406 3.671875 -5.226562 4.046875 -4.46875 C 4.429688 -3.71875 4.957031 -3.128906 5.625 -2.703125 C 6.300781 -2.285156 7.066406 -2.078125 7.921875 -2.078125 Z M 7.921875 -2.078125 "/></g></g></g><g fill="#000000" fill-opacity="1"><g transform="translate(51.225277, 347.164914)"><g><path d="M 8.828125 -14.25 C 9.285156 -14.25 9.679688 -14.128906 10.015625 -13.890625 C 10.359375 -13.648438 10.53125 -13.351562 10.53125 -13 C 10.53125 -12.570312 10.414062 -12.242188 10.1875 -12.015625 C 9.96875 -11.796875 9.695312 -11.6875 9.375 -11.6875 C 9.21875 -11.6875 8.984375 -11.742188 8.671875 -11.859375 C 8.296875 -11.984375 8 -12.046875 7.78125 -12.046875 C 7.238281 -12.046875 6.703125 -11.851562 6.171875 -11.46875 C 5.648438 -11.082031 5.222656 -10.554688 4.890625 -9.890625 C 4.566406 -9.234375 4.40625 -8.5 4.40625 -7.6875 L 4.40625 -1.28125 C 4.40625 -0.925781 4.285156 -0.625 4.046875 -0.375 C 3.804688 -0.125 3.503906 0 3.140625 0 C 2.765625 0 2.460938 -0.117188 2.234375 -0.359375 C 2.003906 -0.597656 1.890625 -0.90625 1.890625 -1.28125 L 1.890625 -12.65625 C 1.890625 -13.007812 2.007812 -13.304688 2.25 -13.546875 C 2.488281 -13.796875 2.785156 -13.921875 3.140625 -13.921875 C 3.503906 -13.921875 3.804688 -13.796875 4.046875 -13.546875 C 4.285156 -13.304688 4.40625 -13.007812 4.40625 -12.65625 L 4.40625 -11.296875 C 4.800781 -12.160156 5.382812 -12.863281 6.15625 -13.40625 C 6.9375 -13.945312 7.828125 -14.226562 8.828125 -14.25 Z M 8.828125 -14.25 "/></g></g></g><g fill="#000000" fill-opacity="1"><g transform="translate(79.524629, 347.164914)"><g><path d="M 15.0625 -6.96875 C 15.0625 -5.582031 14.75 -4.335938 14.125 -3.234375 C 13.507812 -2.140625 12.664062 -1.28125 11.59375 -0.65625 C 10.53125 -0.0390625 9.347656 0.265625 8.046875 0.265625 C 6.753906 0.265625 5.570312 -0.0390625 4.5 -0.65625 C 3.425781 -1.28125 2.578125 -2.140625 1.953125 -3.234375 C 1.335938 -4.335938 1.03125 -5.582031 1.03125 -6.96875 C 1.03125 -8.34375 1.335938 -9.585938 1.953125 -10.703125 C 2.578125 -11.828125 3.425781 -12.695312 4.5 -13.3125 C 5.570312 -13.9375 6.753906 -14.25 8.046875 -14.25 C 9.347656 -14.25 10.53125 -13.9375 11.59375 -13.3125 C 12.664062 -12.695312 13.507812 -11.828125 14.125 -10.703125 C 14.75 -9.585938 15.0625 -8.34375 15.0625 -6.96875 Z M 12.546875 -6.96875 C 12.546875 -7.925781 12.34375 -8.78125 11.9375 -9.53125 C 11.539062 -10.28125 11 -10.863281 10.3125 -11.28125 C 9.632812 -11.695312 8.878906 -11.90625 8.046875 -11.90625 C 7.210938 -11.90625 6.453125 -11.695312 5.765625 -11.28125 C 5.085938 -10.863281 4.550781 -10.28125 4.15625 -9.53125 C 3.757812 -8.78125 3.5625 -7.925781 3.5625 -6.96875 C 3.5625 -6.03125 3.757812 -5.1875 4.15625 -4.4375 C 4.550781 -3.695312 5.085938 -3.117188 5.765625 -2.703125 C 6.453125 -2.285156 7.210938 -2.078125 8.046875 -2.078125 C 8.878906 -2.078125 9.632812 -2.285156 10.3125 -2.703125 C 11 -3.117188 11.539062 -3.695312 11.9375 -4.4375 C 12.34375 -5.1875 12.546875 -6.03125 12.546875 -6.96875 Z M 12.546875 -6.96875 "/></g></g></g><g fill="#000000" fill-opacity="1"><g transform="translate(112.949133, 347.164914)"><g><path d="M 18.15625 -14.0625 C 18.488281 -14.0625 18.773438 -13.941406 19.015625 -13.703125 C 19.253906 -13.460938 19.375 -13.15625 19.375 -12.78125 C 19.375 -12.65625 19.335938 -12.488281 19.265625 -12.28125 L 15.203125 -0.796875 C 15.097656 -0.515625 14.921875 -0.300781 14.671875 -0.15625 C 14.421875 -0.0195312 14.15625 0.03125 13.875 0 C 13.394531 -0.03125 13.03125 -0.296875 12.78125 -0.796875 L 10.015625 -8.03125 L 7.46875 -0.796875 C 7.363281 -0.546875 7.210938 -0.351562 7.015625 -0.21875 C 6.816406 -0.09375 6.601562 -0.0195312 6.375 0 C 6.113281 0.03125 5.851562 -0.0234375 5.59375 -0.171875 C 5.332031 -0.328125 5.160156 -0.535156 5.078125 -0.796875 L 0.953125 -12.28125 C 0.898438 -12.4375 0.875 -12.601562 0.875 -12.78125 C 0.875 -13.132812 0.988281 -13.4375 1.21875 -13.6875 C 1.445312 -13.9375 1.75 -14.0625 2.125 -14.0625 C 2.726562 -14.0625 3.117188 -13.796875 3.296875 -13.265625 L 6.453125 -4.3125 L 8.984375 -10.921875 C 9.191406 -11.453125 9.582031 -11.71875 10.15625 -11.71875 C 10.6875 -11.71875 11.050781 -11.453125 11.25 -10.921875 L 13.828125 -4.40625 L 16.9375 -13.265625 C 17.125 -13.796875 17.53125 -14.0625 18.15625 -14.0625 Z M 18.15625 -14.0625 "/></g></g></g><g fill="#000000" fill-opacity="1"><g transform="translate(150.489673, 347.164914)"><g><path d="M 4.28125 -1.28125 C 4.28125 -0.925781 4.160156 -0.625 3.921875 -0.375 C 3.679688 -0.125 3.375 0 3 0 C 2.644531 0 2.347656 -0.125 2.109375 -0.375 C 1.867188 -0.625 1.75 -0.925781 1.75 -1.28125 L 1.75 -12.78125 C 1.75 -13.132812 1.867188 -13.4375 2.109375 -13.6875 C 2.347656 -13.9375 2.644531 -14.0625 3 -14.0625 C 3.375 -14.0625 3.679688 -13.9375 3.921875 -13.6875 C 4.160156 -13.4375 4.28125 -13.132812 4.28125 -12.78125 Z M 3 -15.8125 C 2.488281 -15.8125 2.117188 -15.90625 1.890625 -16.09375 C 1.671875 -16.28125 1.5625 -16.578125 1.5625 -16.984375 L 1.5625 -17.40625 C 1.5625 -17.832031 1.679688 -18.132812 1.921875 -18.3125 C 2.160156 -18.488281 2.53125 -18.578125 3.03125 -18.578125 C 3.519531 -18.578125 3.875 -18.484375 4.09375 -18.296875 C 4.320312 -18.109375 4.4375 -17.8125 4.4375 -17.40625 L 4.4375 -16.984375 C 4.4375 -16.554688 4.320312 -16.253906 4.09375 -16.078125 C 3.863281 -15.898438 3.5 -15.8125 3 -15.8125 Z M 3 -15.8125 "/></g></g></g><g fill="#000000" fill-opacity="1"><g transform="translate(173.849766, 347.164914)"><g><path d="M 8.984375 -14.25 C 12.171875 -14.25 13.765625 -12.332031 13.765625 -8.5 L 13.765625 -1.28125 C 13.765625 -0.925781 13.644531 -0.625 13.40625 -0.375 C 13.164062 -0.125 12.859375 0 12.484375 0 C 12.128906 0 11.832031 -0.125 11.59375 -0.375 C 11.363281 -0.625 11.25 -0.925781 11.25 -1.28125 L 11.25 -8.484375 C 11.25 -9.523438 11.007812 -10.351562 10.53125 -10.96875 C 10.050781 -11.59375 9.269531 -11.90625 8.1875 -11.90625 C 7.476562 -11.90625 6.832031 -11.75 6.25 -11.4375 C 5.675781 -11.132812 5.222656 -10.71875 4.890625 -10.1875 C 4.566406 -9.664062 4.40625 -9.097656 4.40625 -8.484375 L 4.40625 -1.28125 C 4.40625 -0.925781 4.285156 -0.625 4.046875 -0.375 C 3.804688 -0.125 3.503906 0 3.140625 0 C 2.765625 0 2.460938 -0.117188 2.234375 -0.359375 C 2.003906 -0.597656 1.890625 -0.90625 1.890625 -1.28125 L 1.890625 -12.65625 C 1.890625 -13.007812 2.007812 -13.304688 2.25 -13.546875 C 2.488281 -13.796875 2.785156 -13.921875 3.140625 -13.921875 C 3.503906 -13.921875 3.804688 -13.796875 4.046875 -13.546875 C 4.285156 -13.304688 4.40625 -13.007812 4.40625 -12.65625 L 4.40625 -11.71875 C 4.875 -12.425781 5.519531 -13.023438 6.34375 -13.515625 C 7.164062 -14.003906 8.046875 -14.25 8.984375 -14.25 Z M 8.984375 -14.25 "/></g></g></g><g fill="#000000" fill-opacity="1"><g transform="translate(206.822818, 347.164914)"><g><path d="M 13.53125 -14.109375 C 13.90625 -14.109375 14.207031 -13.988281 14.4375 -13.75 C 14.675781 -13.507812 14.796875 -13.195312 14.796875 -12.8125 L 14.796875 -1.109375 C 14.796875 0.316406 14.488281 1.515625 13.875 2.484375 C 13.269531 3.453125 12.441406 4.164062 11.390625 4.625 C 10.347656 5.082031 9.171875 5.3125 7.859375 5.3125 C 7.148438 5.3125 6.320312 5.1875 5.375 4.9375 C 4.425781 4.695312 3.820312 4.441406 3.5625 4.171875 C 3.007812 3.890625 2.734375 3.535156 2.734375 3.109375 C 2.734375 3.003906 2.769531 2.863281 2.84375 2.6875 C 3.039062 2.238281 3.367188 2.015625 3.828125 2.015625 C 4.054688 2.015625 4.304688 2.066406 4.578125 2.171875 C 5.992188 2.722656 7.097656 3 7.890625 3 C 9.304688 3 10.390625 2.65625 11.140625 1.96875 C 11.898438 1.289062 12.28125 0.359375 12.28125 -0.828125 L 12.28125 -2.265625 C 11.90625 -1.566406 11.28125 -0.96875 10.40625 -0.46875 C 9.53125 0.0195312 8.601562 0.265625 7.625 0.265625 C 6.40625 0.265625 5.289062 -0.0390625 4.28125 -0.65625 C 3.269531 -1.28125 2.472656 -2.144531 1.890625 -3.25 C 1.316406 -4.363281 1.03125 -5.609375 1.03125 -6.984375 C 1.03125 -8.367188 1.316406 -9.613281 1.890625 -10.71875 C 2.472656 -11.832031 3.265625 -12.695312 4.265625 -13.3125 C 5.265625 -13.9375 6.367188 -14.25 7.578125 -14.25 C 8.546875 -14.25 9.453125 -14.023438 10.296875 -13.578125 C 11.140625 -13.140625 11.800781 -12.597656 12.28125 -11.953125 L 12.28125 -12.8125 C 12.28125 -13.1875 12.394531 -13.492188 12.625 -13.734375 C 12.851562 -13.984375 13.15625 -14.109375 13.53125 -14.109375 Z M 7.921875 -2.078125 C 8.785156 -2.078125 9.554688 -2.285156 10.234375 -2.703125 C 10.910156 -3.117188 11.4375 -3.703125 11.8125 -4.453125 C 12.195312 -5.203125 12.390625 -6.046875 12.390625 -6.984375 C 12.390625 -7.929688 12.195312 -8.773438 11.8125 -9.515625 C 11.4375 -10.253906 10.910156 -10.835938 10.234375 -11.265625 C 9.554688 -11.691406 8.785156 -11.90625 7.921875 -11.90625 C 7.066406 -11.90625 6.300781 -11.691406 5.625 -11.265625 C 4.957031 -10.835938 4.429688 -10.25 4.046875 -9.5 C 3.671875 -8.75 3.484375 -7.910156 3.484375 -6.984375 C 3.484375 -6.066406 3.671875 -5.226562 4.046875 -4.46875 C 4.429688 -3.71875 4.957031 -3.128906 5.625 -2.703125 C 6.300781 -2.285156 7.066406 -2.078125 7.921875 -2.078125 Z M 7.921875 -2.078125 "/></g></g></g><g fill="#000000" fill-opacity="1"><g transform="translate(240.804985, 347.164914)"><g/></g></g><g fill="#000000" fill-opacity="1"><g transform="translate(265.492838, 347.164914)"><g><path d="M 8.875 -14.25 C 10.082031 -14.25 11.171875 -13.9375 12.140625 -13.3125 C 13.117188 -12.695312 13.882812 -11.835938 14.4375 -10.734375 C 15 -9.640625 15.28125 -8.398438 15.28125 -7.015625 C 15.28125 -5.628906 15 -4.378906 14.4375 -3.265625 C 13.882812 -2.148438 13.117188 -1.28125 12.140625 -0.65625 C 11.171875 -0.0390625 10.101562 0.265625 8.9375 0.265625 C 8.007812 0.265625 7.144531 0.0625 6.34375 -0.34375 C 5.550781 -0.75 4.90625 -1.253906 4.40625 -1.859375 L 4.40625 -1.09375 C 4.40625 -0.738281 4.285156 -0.4375 4.046875 -0.1875 C 3.804688 0.0625 3.503906 0.1875 3.140625 0.1875 C 2.785156 0.1875 2.488281 0.0664062 2.25 -0.171875 C 2.007812 -0.410156 1.890625 -0.71875 1.890625 -1.09375 L 1.890625 -18.390625 C 1.890625 -18.765625 2.003906 -19.070312 2.234375 -19.3125 C 2.460938 -19.550781 2.765625 -19.671875 3.140625 -19.671875 C 3.503906 -19.671875 3.804688 -19.546875 4.046875 -19.296875 C 4.285156 -19.046875 4.40625 -18.742188 4.40625 -18.390625 L 4.40625 -11.90625 C 4.832031 -12.539062 5.453125 -13.085938 6.265625 -13.546875 C 7.085938 -14.015625 7.957031 -14.25 8.875 -14.25 Z M 8.578125 -2.078125 C 9.398438 -2.078125 10.140625 -2.289062 10.796875 -2.71875 C 11.453125 -3.15625 11.957031 -3.75 12.3125 -4.5 C 12.675781 -5.257812 12.859375 -6.097656 12.859375 -7.015625 C 12.859375 -7.941406 12.675781 -8.773438 12.3125 -9.515625 C 11.957031 -10.253906 11.453125 -10.835938 10.796875 -11.265625 C 10.140625 -11.691406 9.398438 -11.90625 8.578125 -11.90625 C 7.742188 -11.90625 7 -11.691406 6.34375 -11.265625 C 5.695312 -10.835938 5.191406 -10.253906 4.828125 -9.515625 C 4.460938 -8.785156 4.28125 -7.953125 4.28125 -7.015625 C 4.28125 -6.078125 4.460938 -5.234375 4.828125 -4.484375 C 5.191406 -3.742188 5.695312 -3.15625 6.34375 -2.71875 C 7 -2.289062 7.742188 -2.078125 8.578125 -2.078125 Z M 8.578125 -2.078125 "/></g></g></g><g fill="#000000" fill-opacity="1"><g transform="translate(299.129769, 347.164914)"><g><path d="M 8.828125 -14.25 C 9.285156 -14.25 9.679688 -14.128906 10.015625 -13.890625 C 10.359375 -13.648438 10.53125 -13.351562 10.53125 -13 C 10.53125 -12.570312 10.414062 -12.242188 10.1875 -12.015625 C 9.96875 -11.796875 9.695312 -11.6875 9.375 -11.6875 C 9.21875 -11.6875 8.984375 -11.742188 8.671875 -11.859375 C 8.296875 -11.984375 8 -12.046875 7.78125 -12.046875 C 7.238281 -12.046875 6.703125 -11.851562 6.171875 -11.46875 C 5.648438 -11.082031 5.222656 -10.554688 4.890625 -9.890625 C 4.566406 -9.234375 4.40625 -8.5 4.40625 -7.6875 L 4.40625 -1.28125 C 4.40625 -0.925781 4.285156 -0.625 4.046875 -0.375 C 3.804688 -0.125 3.503906 0 3.140625 0 C 2.765625 0 2.460938 -0.117188 2.234375 -0.359375 C 2.003906 -0.597656 1.890625 -0.90625 1.890625 -1.28125 L 1.890625 -12.65625 C 1.890625 -13.007812 2.007812 -13.304688 2.25 -13.546875 C 2.488281 -13.796875 2.785156 -13.921875 3.140625 -13.921875 C 3.503906 -13.921875 3.804688 -13.796875 4.046875 -13.546875 C 4.285156 -13.304688 4.40625 -13.007812 4.40625 -12.65625 L 4.40625 -11.296875 C 4.800781 -12.160156 5.382812 -12.863281 6.15625 -13.40625 C 6.9375 -13.945312 7.828125 -14.226562 8.828125 -14.25 Z M 8.828125 -14.25 "/></g></g></g><g fill="#000000" fill-opacity="1"><g transform="translate(327.429129, 347.164914)"><g><path d="M 13.1875 -14.109375 C 13.550781 -14.109375 13.851562 -13.988281 14.09375 -13.75 C 14.332031 -13.507812 14.453125 -13.195312 14.453125 -12.8125 L 14.453125 -1.28125 C 14.453125 -0.925781 14.332031 -0.625 14.09375 -0.375 C 13.851562 -0.125 13.550781 0 13.1875 0 C 12.8125 0 12.507812 -0.117188 12.28125 -0.359375 C 12.050781 -0.597656 11.9375 -0.90625 11.9375 -1.28125 L 11.9375 -1.96875 C 11.476562 -1.34375 10.847656 -0.8125 10.046875 -0.375 C 9.242188 0.0507812 8.382812 0.265625 7.46875 0.265625 C 6.257812 0.265625 5.164062 -0.0390625 4.1875 -0.65625 C 3.207031 -1.28125 2.4375 -2.144531 1.875 -3.25 C 1.3125 -4.363281 1.03125 -5.609375 1.03125 -6.984375 C 1.03125 -8.367188 1.3125 -9.613281 1.875 -10.71875 C 2.4375 -11.832031 3.203125 -12.695312 4.171875 -13.3125 C 5.148438 -13.9375 6.222656 -14.25 7.390625 -14.25 C 8.328125 -14.25 9.195312 -14.050781 10 -13.65625 C 10.8125 -13.269531 11.457031 -12.773438 11.9375 -12.171875 L 11.9375 -12.8125 C 11.9375 -13.1875 12.050781 -13.492188 12.28125 -13.734375 C 12.507812 -13.984375 12.8125 -14.109375 13.1875 -14.109375 Z M 7.765625 -2.078125 C 8.597656 -2.078125 9.335938 -2.285156 9.984375 -2.703125 C 10.628906 -3.128906 11.132812 -3.710938 11.5 -4.453125 C 11.863281 -5.203125 12.046875 -6.046875 12.046875 -6.984375 C 12.046875 -7.910156 11.863281 -8.742188 11.5 -9.484375 C 11.132812 -10.234375 10.628906 -10.820312 9.984375 -11.25 C 9.335938 -11.6875 8.597656 -11.90625 7.765625 -11.90625 C 6.929688 -11.90625 6.191406 -11.691406 5.546875 -11.265625 C 4.898438 -10.835938 4.394531 -10.253906 4.03125 -9.515625 C 3.664062 -8.773438 3.484375 -7.929688 3.484375 -6.984375 C 3.484375 -6.046875 3.664062 -5.203125 4.03125 -4.453125 C 4.394531 -3.710938 4.898438 -3.128906 5.546875 -2.703125 C 6.191406 -2.285156 6.929688 -2.078125 7.765625 -2.078125 Z M 7.765625 -2.078125 "/></g></g></g><g fill="#000000" fill-opacity="1"><g transform="translate(361.066061, 347.164914)"><g><path d="M 8.984375 -14.25 C 12.171875 -14.25 13.765625 -12.332031 13.765625 -8.5 L 13.765625 -1.28125 C 13.765625 -0.925781 13.644531 -0.625 13.40625 -0.375 C 13.164062 -0.125 12.859375 0 12.484375 0 C 12.128906 0 11.832031 -0.125 11.59375 -0.375 C 11.363281 -0.625 11.25 -0.925781 11.25 -1.28125 L 11.25 -8.484375 C 11.25 -9.523438 11.007812 -10.351562 10.53125 -10.96875 C 10.050781 -11.59375 9.269531 -11.90625 8.1875 -11.90625 C 7.476562 -11.90625 6.832031 -11.75 6.25 -11.4375 C 5.675781 -11.132812 5.222656 -10.71875 4.890625 -10.1875 C 4.566406 -9.664062 4.40625 -9.097656 4.40625 -8.484375 L 4.40625 -1.28125 C 4.40625 -0.925781 4.285156 -0.625 4.046875 -0.375 C 3.804688 -0.125 3.503906 0 3.140625 0 C 2.765625 0 2.460938 -0.117188 2.234375 -0.359375 C 2.003906 -0.597656 1.890625 -0.90625 1.890625 -1.28125 L 1.890625 -12.65625 C 1.890625 -13.007812 2.007812 -13.304688 2.25 -13.546875 C 2.488281 -13.796875 2.785156 -13.921875 3.140625 -13.921875 C 3.503906 -13.921875 3.804688 -13.796875 4.046875 -13.546875 C 4.285156 -13.304688 4.40625 -13.007812 4.40625 -12.65625 L 4.40625 -11.71875 C 4.875 -12.425781 5.519531 -13.023438 6.34375 -13.515625 C 7.164062 -14.003906 8.046875 -14.25 8.984375 -14.25 Z M 8.984375 -14.25 "/></g></g></g><g fill="#000000" fill-opacity="1"><g transform="translate(394.039112, 347.164914)"><g><path d="M 13.1875 -19.671875 C 13.550781 -19.671875 13.851562 -19.550781 14.09375 -19.3125 C 14.332031 -19.070312 14.453125 -18.765625 14.453125 -18.390625 L 14.453125 -1.28125 C 14.453125 -0.925781 14.332031 -0.625 14.09375 -0.375 C 13.851562 -0.125 13.550781 0 13.1875 0 C 12.8125 0 12.507812 -0.117188 12.28125 -0.359375 C 12.050781 -0.597656 11.9375 -0.90625 11.9375 -1.28125 L 11.9375 -2.015625 C 11.488281 -1.378906 10.859375 -0.835938 10.046875 -0.390625 C 9.242188 0.046875 8.382812 0.265625 7.46875 0.265625 C 6.257812 0.265625 5.164062 -0.0390625 4.1875 -0.65625 C 3.21875 -1.28125 2.445312 -2.144531 1.875 -3.25 C 1.3125 -4.363281 1.03125 -5.609375 1.03125 -6.984375 C 1.03125 -8.367188 1.3125 -9.613281 1.875 -10.71875 C 2.4375 -11.832031 3.203125 -12.695312 4.171875 -13.3125 C 5.148438 -13.9375 6.222656 -14.25 7.390625 -14.25 C 8.328125 -14.25 9.191406 -14.050781 9.984375 -13.65625 C 10.785156 -13.269531 11.4375 -12.765625 11.9375 -12.140625 L 11.9375 -18.390625 C 11.9375 -18.765625 12.050781 -19.070312 12.28125 -19.3125 C 12.507812 -19.550781 12.8125 -19.671875 13.1875 -19.671875 Z M 7.765625 -2.078125 C 8.597656 -2.078125 9.335938 -2.285156 9.984375 -2.703125 C 10.628906 -3.128906 11.132812 -3.710938 11.5 -4.453125 C 11.863281 -5.203125 12.046875 -6.046875 12.046875 -6.984375 C 12.046875 -7.910156 11.863281 -8.75 11.5 -9.5 C 11.132812 -10.25 10.628906 -10.835938 9.984375 -11.265625 C 9.335938 -11.691406 8.597656 -11.90625 7.765625 -11.90625 C 6.929688 -11.90625 6.191406 -11.691406 5.546875 -11.265625 C 4.898438 -10.835938 4.394531 -10.25 4.03125 -9.5 C 3.664062 -8.75 3.484375 -7.910156 3.484375 -6.984375 C 3.484375 -6.046875 3.664062 -5.203125 4.03125 -4.453125 C 4.394531 -3.710938 4.898438 -3.128906 5.546875 -2.703125 C 6.191406 -2.285156 6.929688 -2.078125 7.765625 -2.078125 Z M 7.765625 -2.078125 "/></g></g></g><g fill="#000000" fill-opacity="1"><g transform="translate(427.676044, 347.164914)"><g><path d="M 1.09375 -2.171875 C 0.925781 -2.421875 0.84375 -2.660156 0.84375 -2.890625 C 0.84375 -3.242188 1.03125 -3.546875 1.40625 -3.796875 C 1.582031 -3.921875 1.785156 -3.984375 2.015625 -3.984375 C 2.335938 -3.984375 2.628906 -3.851562 2.890625 -3.59375 C 3.421875 -2.988281 3.992188 -2.535156 4.609375 -2.234375 C 5.222656 -1.929688 5.953125 -1.78125 6.796875 -1.78125 C 7.472656 -1.800781 8.066406 -1.957031 8.578125 -2.25 C 9.097656 -2.539062 9.359375 -3.015625 9.359375 -3.671875 C 9.359375 -4.273438 9.09375 -4.734375 8.5625 -5.046875 C 8.039062 -5.367188 7.273438 -5.660156 6.265625 -5.921875 C 5.273438 -6.191406 4.453125 -6.472656 3.796875 -6.765625 C 3.140625 -7.054688 2.585938 -7.476562 2.140625 -8.03125 C 1.691406 -8.59375 1.46875 -9.328125 1.46875 -10.234375 C 1.46875 -11.023438 1.691406 -11.722656 2.140625 -12.328125 C 2.585938 -12.929688 3.1875 -13.398438 3.9375 -13.734375 C 4.695312 -14.078125 5.519531 -14.25 6.40625 -14.25 C 7.257812 -14.25 8.101562 -14.085938 8.9375 -13.765625 C 9.78125 -13.453125 10.46875 -12.96875 11 -12.3125 C 11.21875 -12.0625 11.328125 -11.800781 11.328125 -11.53125 C 11.328125 -11.25 11.179688 -10.976562 10.890625 -10.71875 C 10.710938 -10.550781 10.492188 -10.46875 10.234375 -10.46875 C 9.910156 -10.46875 9.65625 -10.578125 9.46875 -10.796875 C 9.09375 -11.210938 8.632812 -11.535156 8.09375 -11.765625 C 7.550781 -12.003906 6.953125 -12.125 6.296875 -12.125 C 5.617188 -12.125 5.046875 -11.984375 4.578125 -11.703125 C 4.109375 -11.429688 3.875 -10.96875 3.875 -10.3125 C 3.894531 -9.6875 4.164062 -9.222656 4.6875 -8.921875 C 5.207031 -8.628906 6.007812 -8.335938 7.09375 -8.046875 C 8.03125 -7.804688 8.804688 -7.539062 9.421875 -7.25 C 10.046875 -6.96875 10.570312 -6.546875 11 -5.984375 C 11.425781 -5.429688 11.640625 -4.703125 11.640625 -3.796875 C 11.640625 -2.960938 11.398438 -2.238281 10.921875 -1.625 C 10.441406 -1.019531 9.816406 -0.550781 9.046875 -0.21875 C 8.273438 0.101562 7.457031 0.265625 6.59375 0.265625 C 5.476562 0.265625 4.445312 0.0703125 3.5 -0.3125 C 2.550781 -0.707031 1.75 -1.328125 1.09375 -2.171875 Z M 1.09375 -2.171875 "/></g></g></g></svg>