<svg id="SvgjsSvg1011" width="288" height="288" xmlns="http://www.w3.org/2000/svg" version="1.1" xmlns:xlink="http://www.w3.org/1999/xlink" xmlns:svgjs="http://svgjs.com/svgjs"><defs id="SvgjsDefs1012"></defs><g id="SvgjsG1013"><svg xmlns="http://www.w3.org/2000/svg" viewBox="0 -960 960 960" width="288" height="288"><path d="M221-120q-27 0-48-16.5T144-179L42-549q-5-19 6.5-35T80-600h190l176-262q5-8 14-13t19-5q10 0 19 5t14 13l176 262h192q20 0 31.5 16t6.5 35L816-179q-8 26-29 42.5T739-120H221Zm-1-80h520l88-320H132l88 320Zm260-80q33 0 56.5-23.5T560-360q0-33-23.5-56.5T480-440q-33 0-56.5 23.5T400-360q0 33 23.5 56.5T480-280ZM367-600h225L479-768 367-600Zm113 240Z" fill="#f0b9b4" class="color000 svgShape"></path></svg></g></svg>