<svg id="SvgjsSvg1016" width="288" height="288" xmlns="http://www.w3.org/2000/svg" version="1.1" xmlns:xlink="http://www.w3.org/1999/xlink" xmlns:svgjs="http://svgjs.com/svgjs"><defs id="SvgjsDefs1017"></defs><g id="SvgjsG1018"><svg xmlns="http://www.w3.org/2000/svg" viewBox="0 -960 960 960" width="288" height="288"><path d="m344-60-76-128-144-32 14-148-98-112 98-112-14-148 144-32 76-128 136 58 136-58 76 128 144 32-14 148 98 112-98 112 14 148-144 32-76 128-136-58-136 58Zm34-102 102-44 104 44 56-96 110-26-10-112 74-84-74-86 10-112-110-24-58-96-102 44-104-44-56 96-110 24 10 112-74 86 74 84-10 114 110 24 58 96Zm102-318Zm-42 142 226-226-56-58-170 170-86-84-56 56 142 142Z" fill="#ec9087" class="color000 svgShape"></path></svg></g></svg>